# xmcd
#
# Track frame offsets:
#	150
#	12348
#	25860
#	37422
#	54875
#	69677
#	83696
#	95937
#	110926
#	124327
#	142631
#	160108
#
# Disc length: 2283 seconds
#
# Revision: 1
# Processed by: cddbd v1.5.2PL0 Copyright (c) Steve Scherf et al.
# Submitted via: audiograbber 1.83.01
#
DISCID=a408e90c
DTITLE=Mark Burchfield - Country Mountain Masters - Dolly Parton
DYEAR=2008
DGENRE=Country
TTITLE0=The Last Thing On My Mind
TTITLE1=Coat Of Many Colors
TTITLE2=If Teardrops Were Pennies
TTITLE3=My Tennessee Mountain Home
TTITLE4=Jolene
TTITLE5=I Will Always Love You
TTITLE6=Love Is Like A Butterfly
TTITLE7=Applejack
TTITLE8=Two Doors Down
TTITLE9=Old Flames Can't Hold A Candle To You
TTITLE10=9 To 5
TTITLE11=Why'd You Come In Here Lookin' Like That
EXTD=
EXTT0=
EXTT1=
EXTT2=
EXTT3=
EXTT4=
EXTT5=
EXTT6=
EXTT7=
EXTT8=
EXTT9=
EXTT10=
EXTT11=
PLAYORDER=
